<svg version="1.1" xmlns="http://www.w3.org/2000/svg" xmlns:xlink="http://www.w3.org/1999/xlink" width="58.8206" height="33.21948" viewBox="0,0,58.8206,33.21948"><g transform="translate(-209.97215,-157.60899)"><g data-paper-data="{&quot;isPaintingLayer&quot;:true}" fill-rule="nonzero" stroke-linecap="butt" stroke-linejoin="miter" stroke-miterlimit="10" stroke-dasharray="" stroke-dashoffset="0" style="mix-blend-mode: normal"><path d="M264.54604,161.10271c0.90468,2.04327 2.59422,8.98784 3.24671,14.70947c0.24266,2.12795 1.16094,6.39982 -0.14263,9.4477c-1.15798,2.70749 -4.48861,4.31932 -5.25795,4.56859c-2.14322,0.69442 -6.86387,-0.25053 -7.68735,-0.58006c-0.82881,-0.33167 -3.02341,-1.99859 -4.39433,-3.74268c-1.20739,-1.53605 -1.63143,-3.18718 -1.94403,-3.26513c-0.59406,-0.14812 -18.84589,0.18947 -19.02662,0.31207c-0.39538,0.26819 -1.29079,0.90109 -1.34533,1.38227c-0.03517,0.31032 -1.097,4.35166 -3.06296,5.98599c-0.9204,0.76514 -6.07794,1.31789 -8.44003,0.36894c-4.14543,-1.66539 -5.51937,-6.09303 -5.51937,-10.21641c0,-2.26297 0.25147,-7.2934 1.12214,-11.31386c0.79277,-3.66073 2.20974,-6.4332 2.25274,-6.51188c0.60765,-1.11178 2.17099,-3.51528 5.14222,-3.63873c0.46387,-0.01927 2.68877,0.15965 4.73859,1.49041c3.33487,2.16502 7.91207,5.46769 10.99935,5.99634c3.79735,0.65024 8.10901,0.80848 9.87077,-0.05488c1.05865,-0.5188 2.58222,-0.99287 4.2463,-2.01656c5.42142,-3.33511 12.88039,-8.16449 15.20176,-2.92158z" fill="#6e6e6e" stroke="#262626" stroke-width="2"/><path d="M259.4873,170.44232c0,1.40022 -1.12349,2.53531 -2.50939,2.53531c-1.3859,0 -2.50939,-1.1351 -2.50939,-2.53531c0,-1.40022 1.12349,-2.53531 2.50939,-2.53531c1.3859,0 2.50939,1.1351 2.50939,2.53531z" fill="#dd0000" stroke="#7a0000" stroke-width="0.5"/><path d="M255.23438,174.88543c0,1.40022 -1.12349,2.53531 -2.50939,2.53531c-1.3859,0 -2.50939,-1.13509 -2.50939,-2.53531c0,-1.40022 1.12349,-2.53531 2.50939,-2.53531c1.3859,0 2.50939,1.1351 2.50939,2.53531z" fill="#de0000" stroke="#7a0000" stroke-width="0.5"/><path d="M259.47683,179.41647c0,1.40022 -1.12349,2.53531 -2.50939,2.53531c-1.3859,0 -2.50939,-1.1351 -2.50939,-2.53531c0,-1.40022 1.12349,-2.53531 2.50939,-2.53531c1.3859,0 2.50939,1.1351 2.50939,2.53531z" fill="#de0000" stroke="#7a0000" stroke-width="0.5"/><path d="M263.82864,174.64572c0,1.40022 -1.12349,2.53531 -2.50939,2.53531c-1.3859,0 -2.50939,-1.13509 -2.50939,-2.53531c0,-1.40022 1.12349,-2.53531 2.50939,-2.53531c1.3859,0 2.50939,1.1351 2.50939,2.53531z" fill="#de0000" stroke="#7a0000" stroke-width="0.5"/><path d="M220.94581,180.7839v-10.42984h3.14068v10.42984z" fill="#898989" stroke="none" stroke-width="0"/><path d="M217.67665,176.99205v-3.15448h9.72976v3.15448z" fill="#898989" stroke="none" stroke-width="0"/><path d="M213.09768,170.21378c0.20058,-1.32656 0.39429,-2.75504 0.85608,-4.03683c0.81195,-2.25375 2.04286,-4.12231 2.6651,-4.67477c0.34719,-0.30825 1.24658,-1.44251 2.92569,-1.52195c1.16492,-0.05511 3.0714,0.66808 3.49717,0.89281c0.97223,0.51317 2.81144,1.87275 2.84283,1.88183c0.16939,0.04904 -4.67641,-1.30622 -7.32519,0.47501c-2.3081,1.55214 -5.33608,9.48731 -5.5839,9.93144c-0.79111,1.41775 -0.27296,-0.33405 0.12221,-2.94754z" fill="#f5f5f5" stroke="none" stroke-width="0"/></g></g></svg>