<svg version="1.1" xmlns="http://www.w3.org/2000/svg" xmlns:xlink="http://www.w3.org/1999/xlink" width="43.59939" height="40.77488" viewBox="0,0,43.59939,40.77488"><g transform="translate(-218.18312,-159.79884)"><g data-paper-data="{&quot;isPaintingLayer&quot;:true}" fill-rule="nonzero" stroke-linecap="butt" stroke-linejoin="miter" stroke-miterlimit="10" stroke-dasharray="" stroke-dashoffset="0" style="mix-blend-mode: normal"><path d="M219.43312,199.32372v-38.27488h41.09939v38.27488z" fill="#ffcc00" stroke="#332900" stroke-width="2.5"/><path d="M221.84968,196.79279v-33.529h36.27455v33.529z" fill="none" stroke="#8a6e00" stroke-width="2.5"/><path d="M244.33886,196.16551c0,2.74396 -8.44549,0.38596 -11.43972,0.38596c-2.99424,0 -8.34205,1.19225 -8.34205,-1.55171c0,-0.47682 0.72588,-3.0959 1.78339,-5.01144c0.48986,-0.8873 0.98133,-1.91456 1.87287,-2.79143c0.76687,-0.75425 1.97959,-1.33909 2.00649,-2.30132c0.03844,-1.37482 -1.518,-1.99676 -2.1019,-3.34543c-1.00603,-2.32372 -1.24057,-5.26463 -0.71453,-6.82251c1.25651,-3.72122 3.99296,-5.28766 5.21201,-5.28766c0.13621,0 3.41628,-0.53589 5.58224,0.98015c0.69602,0.48717 2.31978,2.6802 2.7602,5.22404c0.25034,1.44593 -0.38797,3.47176 -0.53193,4.19703c-0.31109,1.56725 -1.68327,3.17436 -2.14508,5.20031c-0.22219,0.97473 0.50009,1.3122 1.4059,1.93194c0.42405,0.29012 1.85311,2.25494 2.88302,4.39321c1.08891,2.26077 1.76909,4.69567 1.76909,4.79885z" fill="#8a6e00" stroke="none" stroke-width="0"/><path d="M255.72177,196.07259c0,1.98594 -6.11241,0.27934 -8.27948,0.27934c-2.16708,0 -6.03755,0.86289 -6.03755,-1.12305c0,-0.3451 0.52536,-2.24065 1.29073,-3.62702c0.35453,-0.64219 0.71023,-1.38566 1.35549,-2.0203c0.55503,-0.54589 1.43273,-0.96917 1.4522,-1.66558c0.02782,-0.99502 -1.09866,-1.44515 -1.52125,-2.42125c-0.72812,-1.68179 -0.89786,-3.81027 -0.51714,-4.93779c0.9094,-2.69323 2.8899,-3.82693 3.77218,-3.82693c0.09859,0 2.47253,-0.38786 4.04014,0.70938c0.50375,0.35259 1.67894,1.93979 1.99769,3.78089c0.18118,1.04649 -0.28079,2.51268 -0.38498,3.0376c-0.22515,1.1343 -1.21827,2.29744 -1.5525,3.76371c-0.16081,0.70546 0.36193,0.9497 1.01752,1.39824c0.3069,0.20998 1.34118,1.63201 2.08658,3.17959c0.78809,1.63623 1.28037,3.39848 1.28037,3.47316z" fill="#8a6e00" stroke="none" stroke-width="0"/></g></g></svg>