<svg version="1.1" xmlns="http://www.w3.org/2000/svg" xmlns:xlink="http://www.w3.org/1999/xlink" width="41.39864" height="46.43066" viewBox="0,0,41.39864,46.43066"><defs><linearGradient x1="239.841" y1="158.51408" x2="239.841" y2="202.52876" gradientUnits="userSpaceOnUse" id="color-1"><stop offset="0" stop-color="#ffffff"/><stop offset="1" stop-color="#f2f2f2"/></linearGradient><linearGradient x1="244.75464" y1="186.4695" x2="244.75464" y2="202.60761" gradientUnits="userSpaceOnUse" id="color-2"><stop offset="0" stop-color="#ffffff"/><stop offset="1" stop-color="#eaeaea"/></linearGradient></defs><g transform="translate(-219.9359,-157.26408)"><g data-paper-data="{&quot;isPaintingLayer&quot;:true}" fill-rule="nonzero" stroke="#2e2e2e" stroke-linejoin="miter" stroke-miterlimit="10" stroke-dasharray="" stroke-dashoffset="0" style="mix-blend-mode: normal"><path d="M241.43237,202.16396c0,0 -6.81901,0.74284 -8.78682,0.10846c-1.7299,-0.55768 -3.28563,-1.70158 -4.56941,-3.11828c-3.87553,-4.27678 -6.72717,-11.96724 -6.89023,-14.02347c-0.1945,-2.45258 -0.65232,-6.38384 -0.36662,-10.42817c0.55168,-7.80973 2.20966,-16.18842 2.20966,-16.18842h31.5705c0,0 -2.80836,6.74647 -4.17618,13.71515c-0.4845,2.46839 -1.16731,5.03419 -1.3387,7.30216c-0.09334,1.2353 0.33051,5.30599 2.18816,7.72889c1.13798,1.48425 4.06566,1.6826 4.06566,2.19275c0,2.49651 0.42576,2.44231 2.62782,5.14136c2.49025,3.05228 -0.51261,3.28356 -0.51261,3.28356z" fill="url(#color-1)" stroke-width="2.5" stroke-linecap="butt"/><path d="M226.28366,164.46414c0,0 1.14156,0.81701 3.1789,0.66777c1.73011,-0.12673 4.28938,-1.22481 5.40887,-1.21138c0.62962,0.00755 1.98832,0.75554 3.30179,0.94082c0.97609,0.1377 1.85557,-0.28928 2.77184,-0.21606c0.68487,0.05473 1.62813,-0.30909 2.66215,-0.4635c0.50102,-0.07482 1.37876,0.0607 2.2035,0.23559c1.04544,0.22169 2.00575,0.50663 2.00575,0.50663" fill="none" stroke-width="1.5" stroke-linecap="round"/><path d="M225.3802,171.9403c0,0 0.96031,-0.28494 2.00575,-0.50663c0.82475,-0.17489 1.70248,-0.31041 2.2035,-0.23559c1.03403,0.15442 1.97728,0.51824 2.66215,0.4635c0.91627,-0.07322 1.79575,0.35375 2.77184,0.21606c1.31347,-0.18528 2.67217,-0.93327 3.30179,-0.94082c1.1195,-0.01343 3.67877,1.08465 5.40887,1.21138c2.03734,0.14924 3.1789,-0.66777 3.1789,-0.66777" data-paper-data="{&quot;index&quot;:null}" fill="none" stroke-width="1.5" stroke-linecap="round"/><path d="M246.43122,179.71013c0,0 -1.14156,-0.81701 -3.1789,-0.66777c-1.73011,0.12673 -4.28938,1.22481 -5.40888,1.21138c-0.62962,-0.00755 -1.98832,-0.75554 -3.30178,-0.94082c-0.97609,-0.1377 -1.85557,0.28928 -2.77184,0.21606c-0.68487,-0.05473 -1.62813,0.30909 -2.66215,0.4635c-0.50102,0.07482 -1.37876,-0.06069 -2.2035,-0.23558c-1.04544,-0.22169 -2.00575,-0.50664 -2.00575,-0.50664" data-paper-data="{&quot;index&quot;:null}" fill="none" stroke-width="1.5" stroke-linecap="round"/><path d="M247.34211,184.42889c0,0 -0.90011,0.43953 -1.89462,0.83073c-0.78457,0.30861 -1.6279,0.58714 -2.1344,0.59604c-1.04533,0.01837 -2.0357,-0.18478 -2.70215,-0.01777c-0.89162,0.22344 -1.82951,-0.05251 -2.76949,0.24439c-1.26487,0.39953 -2.48149,1.3615 -3.10122,1.47287c-1.10193,0.19802 -3.80734,-0.4626 -5.53463,-0.30205c-2.03403,0.18906 -3.02509,1.18328 -3.02509,1.18328" data-paper-data="{&quot;index&quot;:null}" fill="none" stroke-width="1.5" stroke-linecap="round"/><path d="M250.23373,189.01933c0,0 -0.90011,0.43954 -1.89462,0.83074c-0.78457,0.30862 -1.62789,0.58713 -2.13439,0.59604c-1.04533,0.01836 -2.0357,-0.18478 -2.70215,-0.01776c-0.89162,0.22344 -1.82952,-0.05251 -2.76949,0.24439c-1.26487,0.39953 -2.48148,1.3615 -3.10122,1.47287c-1.10192,0.19801 -3.80734,-0.46261 -5.53463,-0.30205c-2.03403,0.18906 -3.02509,1.18328 -3.02509,1.18328" data-paper-data="{&quot;index&quot;:null}" fill="none" stroke-width="1.5" stroke-linecap="round"/><path d="M235.50381,202.44474c0,0 0.84069,-0.42958 2.22799,-2.07007c0.77512,-0.91658 0.23405,-2.27153 0.43534,-2.85462c0.24127,-0.69887 -0.47634,-2.08373 -1.70937,-2.61858c-0.64354,-0.27914 -1.55588,1.03433 -1.66949,2.1272c-0.0256,0.24626 0.22748,0.66267 0.65349,0.96384c0.50866,0.3596 1.24253,0.59915 1.75054,0.79481c1.50229,0.57863 -0.47104,2.10763 -0.47104,2.10763c0,0 -0.13504,0.69506 -0.78703,1.08959c-0.53328,0.32271 -1.77658,0.53168 -2.92656,0.18368c-1.19924,-0.36291 -2.30181,-1.2967 -2.63188,-1.60495c-0.74876,-0.69926 -1.01887,-2.14051 -1.06209,-3.08683c-0.06783,-1.4851 2.14252,-4.25282 2.57403,-4.67749c1.70318,-1.67613 8.22187,-3.48165 10.08323,-3.98485c2.59498,-0.70153 7.77326,-2.64009 11.55479,-2.3063c1.94236,0.17145 4.13007,2.64395 4.13007,2.64395c0,0 1.07866,1.5133 1.74121,2.81414c0.55279,1.08534 0.7085,1.99309 0.71655,2.02977c0.46555,2.12194 -1.159,3.98418 -1.33257,4.00682c-0.58759,0.07665 -0.45861,1.2009 -3.00782,2.05445c-1.91495,0.64118 -4.04738,1.2555 -6.54308,1.71045c-7.33646,1.3374 -13.7263,0.67736 -13.7263,0.67736z" fill="url(#color-2)" stroke-width="2.5" stroke-linecap="butt"/></g></g></svg>