<svg version="1.1" xmlns="http://www.w3.org/2000/svg" xmlns:xlink="http://www.w3.org/1999/xlink" width="32.50712" height="47.39728" viewBox="0,0,32.50712,47.39728"><g transform="translate(-223.82586,-155.74317)"><g data-paper-data="{&quot;isPaintingLayer&quot;:true}" fill-rule="nonzero" stroke-linejoin="miter" stroke-miterlimit="10" stroke-dasharray="" stroke-dashoffset="0" style="mix-blend-mode: normal"><path d="M226.79557,158.17931v-0.62538c0,0 10.43782,-0.56076 11.69358,-0.56076c1.55611,0 14.75676,0.29876 14.75676,0.29876l-0.0403,0.88738c0,0 -10.52517,0.28345 -15.21518,0.28345c-4.00461,0 -11.19486,-0.28345 -11.19486,-0.28345z" fill="#1b671c" stroke="#1b671c" stroke-width="2.5" stroke-linecap="butt"/><path d="M226.74027,158.37605l18.00833,-0.15366c0,0 -0.59777,14.75536 -0.58832,22.02525c0.00938,7.21499 -6.78211,21.27882 -6.78211,21.27882l-10.10101,0.23096c0,0 -0.56818,-6.60529 -0.89226,-12.8842c-0.12744,-2.46932 -0.1111,-4.62492 -0.11363,-6.57167c-0.00312,-2.40089 -0.36662,-5.88028 -0.22061,-9.2377c0.31207,-7.17587 0.68961,-14.68778 0.68961,-14.68778z" fill="#258e27" stroke="#1b671c" stroke-width="2.5" stroke-linecap="butt"/><path d="M230.4662,158.43048l17.52791,-0.07892c0,0 -0.59777,14.71842 -0.58832,21.97012c0.00938,7.19693 0.60366,19.80315 0.60366,19.80315l-17.48679,1.65278c0,0 -1.13326,-12.8886 -1.14222,-19.76821c-0.00367,-2.81949 -0.16981,-6.64632 0.02151,-10.5735c0.31853,-6.53811 1.06424,-13.00542 1.06424,-13.00542z" fill="#258e27" stroke="#1b671c" stroke-width="2.5" stroke-linecap="butt"/><path d="M233.77922,158.35633l17.7401,0.26663c0,0 -0.59777,14.57996 -0.58832,21.76343c0.00938,7.12922 0.53513,19.51295 0.53513,19.51295l-17.41826,1.74112c0,0 -1.22415,-12.79986 -1.23311,-19.61475c-0.00295,-2.24228 0.0931,-5.1234 0.18642,-8.23666c0.21644,-7.22061 0.99022,-15.08792 0.99022,-15.08792z" fill="#258e27" stroke="#1b671c" stroke-width="2.5" stroke-linecap="butt"/><path d="M237.24669,158.31786l16.82434,-0.87676c0,0 -0.9243,15.58864 -0.91486,22.77864c0.00938,7.1357 1.75784,19.42904 1.75784,19.42904l-17.73204,1.97564c0,0 -0.81513,-13.0087 -0.82409,-19.82978c-0.00341,-2.59755 0.02787,-6.10672 0.16875,-9.74694c0.26313,-6.79964 0.72007,-13.72984 0.72007,-13.72984z" fill="#2daf30" stroke="#1b671c" stroke-width="2.5" stroke-linecap="butt"/><path d="M249.31216,181.44889c0,4.16186 -1.69455,7.5037 -4.26234,7.5037c-2.56779,0 -4.86166,-3.2138 -4.86166,-7.37565c0,-4.16186 2.29387,-7.69576 4.86166,-7.69576c2.56779,0 4.26234,3.40586 4.26234,7.56771z" fill="#11e415" stroke="#1b671c" stroke-width="2.5" stroke-linecap="butt"/><path d="M225.80128,183.66922c0,0 -0.59447,-0.77424 -0.75778,-1.47781c-0.09975,-0.42978 0.11922,-1.00872 0.11922,-1.27117c0,-0.48072 0.50886,-1.15707 0.50886,-1.15707c0,0 7.36031,1.98676 11.61902,1.98676c1.72293,0 4.8701,-0.0317 8.13285,-0.61952c1.63174,-0.29398 3.32818,-0.48288 4.80394,-0.75504c1.19334,-0.22008 2.27195,-0.83169 3.13275,-0.79695c1.89197,0.07637 1.3461,1.57542 1.3461,1.77418c0,0.18032 0.18169,1.67607 -1.36127,2.061c-3.82171,0.95342 -12.28664,1.69203 -15.68978,1.69203c-4.31528,0 -11.85391,-1.43641 -11.85391,-1.43641z" fill="#ffffff" stroke="#2d2d2d" stroke-width="2.5" stroke-linecap="butt"/><path d="M236.82996,184.49392l0.05223,-2.35148" fill="none" stroke="#2d2d2d" stroke-width="2.5" stroke-linecap="round"/><path d="M226.30731,181.91624l11.03423,1.60236" fill="none" stroke="#727272" stroke-width="1.5" stroke-linecap="round"/><path d="M237.75088,183.4654l15.4993,-2.12285" fill="none" stroke="#ffffff" stroke-width="1.5" stroke-linecap="round"/></g></g></svg>