<svg version="1.1" xmlns="http://www.w3.org/2000/svg" xmlns:xlink="http://www.w3.org/1999/xlink" width="60.52305" height="34.96944" viewBox="0,0,60.52305,34.96944"><g transform="translate(-207.77163,-157.55504)"><g data-paper-data="{&quot;isPaintingLayer&quot;:true}" fill-rule="nonzero" stroke-linejoin="miter" stroke-miterlimit="10" stroke-dasharray="" stroke-dashoffset="0" style="mix-blend-mode: normal"><g stroke-linecap="butt"><path d="M264.04797,161.04877c0.90468,2.04327 2.59422,8.98784 3.24671,14.70947c0.24266,2.12795 1.16094,6.39982 -0.14263,9.4477c-1.15798,2.70749 -4.48861,4.31932 -5.25795,4.56859c-2.14322,0.69442 -6.86387,-0.25053 -7.68735,-0.58006c-0.82881,-0.33167 -3.02341,-1.99859 -4.39433,-3.74268c-1.20739,-1.53605 -1.63143,-3.18718 -1.94403,-3.26513c-0.59406,-0.14812 -18.84589,0.18947 -19.02662,0.31207c-0.39538,0.26819 -1.29079,0.90109 -1.34533,1.38227c-0.03517,0.31032 -1.097,4.35166 -3.06296,5.98599c-0.9204,0.76514 -6.07794,1.31789 -8.44003,0.36894c-4.14543,-1.66539 -5.51937,-6.09303 -5.51937,-10.21641c0,-2.26297 0.25147,-7.2934 1.12214,-11.31386c0.79277,-3.66073 2.20974,-6.4332 2.25274,-6.51188c0.60765,-1.11178 2.17099,-3.51528 5.14222,-3.63873c0.46387,-0.01927 2.68877,0.15965 4.73859,1.49041c3.33487,2.16502 7.91207,5.46769 10.99935,5.99634c3.79735,0.65024 8.10901,0.80848 9.87077,-0.05488c1.05865,-0.5188 2.58222,-0.99287 4.2463,-2.01656c5.42142,-3.33511 12.88039,-8.16449 15.20176,-2.92158z" fill="#6e6e6e" stroke="#262626" stroke-width="2"/><path d="M259.4873,170.44234c0,1.40022 -1.12349,2.53531 -2.50939,2.53531c-1.3859,0 -2.50939,-1.1351 -2.50939,-2.53531c0,-1.40022 1.12349,-2.53531 2.50939,-2.53531c1.3859,0 2.50939,1.1351 2.50939,2.53531z" fill="#dd0000" stroke="#7a0000" stroke-width="0.5"/><path d="M255.23438,174.88545c0,1.40022 -1.12349,2.53531 -2.50939,2.53531c-1.3859,0 -2.50939,-1.13509 -2.50939,-2.53531c0,-1.40022 1.12349,-2.53531 2.50939,-2.53531c1.3859,0 2.50939,1.1351 2.50939,2.53531z" fill="#de0000" stroke="#7a0000" stroke-width="0.5"/><path d="M259.47683,179.41649c0,1.40022 -1.12349,2.53531 -2.50939,2.53531c-1.3859,0 -2.50939,-1.1351 -2.50939,-2.53531c0,-1.40022 1.12349,-2.53531 2.50939,-2.53531c1.3859,0 2.50939,1.1351 2.50939,2.53531z" fill="#de0000" stroke="#7a0000" stroke-width="0.5"/><path d="M263.82864,174.64574c0,1.40022 -1.12349,2.53531 -2.50939,2.53531c-1.3859,0 -2.50939,-1.13509 -2.50939,-2.53531c0,-1.40022 1.12349,-2.53531 2.50939,-2.53531c1.3859,0 2.50939,1.1351 2.50939,2.53531z" fill="#de0000" stroke="#7a0000" stroke-width="0.5"/><path d="M220.94581,180.78392v-10.42984h3.14068v10.42984z" fill="#898989" stroke="none" stroke-width="0"/><path d="M217.67665,176.99207v-3.15448h9.72976v3.15448z" fill="#898989" stroke="none" stroke-width="0"/><path d="M213.09768,170.2138c0.20058,-1.32656 0.39429,-2.75504 0.85608,-4.03683c0.81195,-2.25375 2.04286,-4.12231 2.6651,-4.67477c0.34719,-0.30825 1.24658,-1.44251 2.92569,-1.52195c1.16492,-0.05511 3.0714,0.66808 3.49717,0.89281c0.97223,0.51317 2.81144,1.87275 2.84283,1.88183c0.16939,0.04904 -4.67641,-1.30622 -7.32519,0.47501c-2.3081,1.55214 -5.33608,9.48731 -5.5839,9.93144c-0.79111,1.41775 -0.27296,-0.33405 0.12221,-2.94754z" fill="#f5f5f5" stroke="none" stroke-width="0"/></g><g data-paper-data="{&quot;index&quot;:null}"><path d="M209.83763,190.57325l-0.3058,0.00312c0,0 -0.32643,-5.10114 -0.33272,-5.71518c-0.00778,-0.76091 0.07225,-7.21733 0.07225,-7.21733l0.43411,0.01527c0,0 0.19127,5.14523 0.21474,7.43858c0.02004,1.9582 -0.08258,5.47555 -0.08258,5.47555z" fill="#1b671c" stroke="#1b671c" stroke-width="2.5" stroke-linecap="butt"/><path d="M209.9341,190.5993l-0.16525,-8.80504c0,0 7.21815,0.21845 10.77297,0.17746c3.52797,-0.0407 10.43897,3.20987 10.43897,3.20987l0.16349,4.93809c0,0 -3.22705,0.31088 -6.29572,0.50078c-1.20682,0.07467 -2.26097,0.07747 -3.21288,0.08845c-1.17398,0.01354 -2.87353,0.2087 -4.51599,0.15411c-3.51046,-0.11669 -7.18555,-0.26371 -7.18555,-0.26371z" fill="#258e27" stroke="#1b671c" stroke-width="2.5" stroke-linecap="butt"/><path d="M209.94208,188.7771l-0.1263,-8.57049c0,0 7.20008,0.21864 10.74601,0.17773c3.51915,-0.0406 9.68042,-0.39428 9.68042,-0.39428l0.8957,8.54251c0,0 -6.29665,0.61865 -9.66064,0.65746c-1.37867,0.01591 -3.24911,0.1163 -5.1704,0.0424c-3.19863,-0.12304 -6.36478,-0.45532 -6.36478,-0.45532z" fill="#258e27" stroke="#1b671c" stroke-width="2.5" stroke-linecap="butt"/><path d="M209.88924,187.15746l0.0416,-8.67599c0,0 7.13239,0.21934 10.64495,0.17877c3.48603,-0.04026 9.53886,-0.35932 9.53886,-0.35932l0.93855,8.50856c0,0 -6.25282,0.66265 -9.58515,0.70113c-1.09643,0.01266 -2.50573,-0.01988 -4.02854,-0.04993c-3.53186,-0.06971 -7.38274,-0.4087 -7.38274,-0.4087z" fill="#258e27" stroke="#1b671c" stroke-width="2.5" stroke-linecap="butt"/><path d="M209.85308,185.46211l-0.51292,-8.22248c0,0 7.62724,0.37396 11.143,0.33336c3.4892,-0.04029 9.49171,-0.95678 9.49171,-0.95678l1.05479,8.66082c0,0 -6.35698,0.46368 -9.69234,0.5022c-1.27015,0.01467 -2.98623,0.01692 -4.76695,-0.03375c-3.32624,-0.09464 -6.7173,-0.28339 -6.7173,-0.28339z" fill="#2daf30" stroke="#1b671c" stroke-width="2.5" stroke-linecap="butt"/><path d="M221.10343,179.44651c2.03509,-0.02082 3.67768,0.79107 3.69054,2.04668c0.01285,1.25561 -1.54717,2.39336 -3.58226,2.41419c-2.03509,0.02082 -3.77459,-1.08315 -3.78744,-2.33876c-0.01285,-1.25561 1.64408,-2.10127 3.67916,-2.1221z" fill="#11e415" stroke="#1b671c" stroke-width="2.5" stroke-linecap="butt"/><path d="M222.30679,190.93187c0,0 -0.37561,0.29456 -0.71883,0.37794c-0.20965,0.05093 -0.49385,-0.05324 -0.62218,-0.05193c-0.23506,0.0024 -0.56834,-0.24304 -0.56834,-0.24304c0,0 0.93467,-3.60903 0.91336,-5.69147c-0.00862,-0.84249 -0.03988,-2.38125 -0.34364,-3.97374c-0.15192,-0.79643 -0.25277,-1.62502 -0.39324,-2.34528c-0.11359,-0.58243 -0.41806,-1.10678 -0.40537,-1.52788c0.02787,-0.92553 0.76362,-0.6661 0.86081,-0.6671c0.08818,-0.0009 0.81866,-0.09723 1.01461,0.65533c0.48534,1.86398 0.88888,5.99952 0.90591,7.6636c0.02159,2.11011 -0.64307,5.80357 -0.64307,5.80357z" fill="#ffffff" stroke="#2d2d2d" stroke-width="2.5" stroke-linecap="butt"/><path d="M221.50477,185.52112l1.1501,0.01376" fill="none" stroke="#2d2d2d" stroke-width="2.5" stroke-linecap="round"/><path d="M222.1754,185.28961l-0.72832,5.4036" fill="none" stroke="#727272" stroke-width="1.5" stroke-linecap="round"/><path d="M221.03172,177.52141l1.11561,7.5683" fill="none" stroke="#ffffff" stroke-width="1.5" stroke-linecap="round"/></g></g></g></svg>